<svg xmlns="http://www.w3.org/2000/svg" viewBox="0 0 500 500"><defs><clipPath id="a"><path d="M56 159h230v228H56z" style="fill:none"/></clipPath><clipPath id="b"><path d="m224 185 31 36c5 6 6 10 4 12l-28 16-53 32c-1 1-4-27-4-27l65-27-1-2-20-38Z" style="fill:#fff;stroke:#263238;stroke-linecap:round;stroke-linejoin:round;stroke-width:.75px"/></clipPath><clipPath id="c"><path d="M158 389c10-1 24-9 28-18-3-15-7-37-7-51 0-23 6-36 3-51s-8-25-15-29c0 0-9 2-19 11s-18 25-21 40-8 60-8 72l-1 27h35a26 26 0 0 0 5-1Z" style="fill:#fff;stroke:#263238;stroke-linecap:round;stroke-linejoin:round;stroke-width:.75px"/></clipPath><clipPath id="d"><path d="m180 215 1 11c1 4-9 14-9 14l14 20 14-12s21-1 23-3 2-21 2-21l5-3-6-24-1-5s7-2 6-9-12-10-22-8-12 5-12 5-14 0-22 7-3 16 0 20a57 57 0 0 0 7 8Z" style="fill:#fff;stroke:#263238;stroke-linecap:round;stroke-linejoin:round;stroke-width:.75px"/></clipPath><clipPath id="e"><path d="M195 225s-1-13-7-13-6 8-4 14 6 8 9 5" style="fill:#407bff;stroke:#263238;stroke-linecap:round;stroke-linejoin:round;stroke-width:.75px"/></clipPath><clipPath id="f"><path d="m173 233 19 29-9 11a224 224 0 0 0-13-22l-7-11Z" style="fill:#fff;stroke:#263238;stroke-linecap:round;stroke-linejoin:round;stroke-width:.75px"/></clipPath><clipPath id="g"><path d="m168 297-8-29c-2-5-15-10-22 2s0 24 2 33l19 56c2 5 6 4 8 4s61-48 61-48l-5-10-45 23Z" style="fill:#fff;stroke:#263238;stroke-linecap:round;stroke-linejoin:round;stroke-width:.75px"/></clipPath></defs><path d="M430 254c-4-27-12-54-22-72-25-45-93-75-144-67-44 6-65 46-105 60-36 13-69 23-86 56-36 71 53 149 129 143 24-2 45-11 70-7 50 9 66 19 111 1 43-17 53-67 47-114Z" style="fill:#407bff"/><path d="M430 254c-4-27-12-54-22-72-25-45-93-75-144-67-44 6-65 46-105 60-36 13-69 23-86 56-36 71 53 149 129 143 24-2 45-11 70-7 50 9 66 19 111 1 43-17 53-67 47-114Z" style="fill:#fff;opacity:.8"/><path d="m255 389-43-95h104l127 84" style="fill:#fff;stroke:#263238;stroke-linecap:round;stroke-linejoin:round;stroke-width:.75px"/><path d="m244 386-32-86v-6l46 100-14-8z" style="fill:#263238;stroke:#263238;stroke-linecap:round;stroke-linejoin:round;stroke-width:.75px"/><path d="m271 298 44 51-53 13-30-58 39-6z" style="fill:#fff;stroke:#263238;stroke-linecap:round;stroke-linejoin:round;stroke-width:.75px"/><path d="M262 362v1l52-10 1-4-53 13z" style="fill:#263238;stroke:#263238;stroke-linecap:round;stroke-linejoin:round;stroke-width:.75px"/><path d="m270 316 2 4 6-2-3-3-5 1zm21 21-2-4-7 2 3 4 6-2zm-26-27 2 2 5-1-2-3-5 2zm10 15 3 4 7-1-4-5-6 2zm17 2-6 1 3 4 5-1-2-4zm-13 3 3 4 6-2-3-3-6 1zm-20-19 2 3 5-2-2-2-5 1zm13 10 3 3 6-2-3-3-6 2zm-5-8 2 3 6-2-2-3-6 2zm-11 6-2-3-6 2 1 3 7-2zm-9 8 4-2-2-3-4 1 2 4zm10-19 1 2 6-1-2-2-5 1zm-4 7-1-3-6 2 1 3 6-2zm-2-6 1 2 5-1-1-2-5 1zm-9 9 4-1-1-3-4 1 1 3zm2-7 1 2 6-1-1-3-6 2zm19 7 3 3 5-1-2-3-6 1zm15 12-4-5-5 2 3 4 6-1zm-25-18 1 3 6-1-2-3-5 1zm1 19-4 1 2 4 4-1-2-4zm12-9 2 4 6-2-2-3-6 1zm-4-4-2-3-5 1 2 3 5-1zm10 31-6 1 2 4 6-1-2-4zm-9-43 5-1-3-4-5 1 3 4zm-13 3-3-5-6 1 2 5 7-1zm8 15-2-4-6 2 2 3 6-1zm16 12-3-4-6 2 2 4 7-2zm-3-5-3-4-6 2 2 4 7-2zm10 3-3-4-6 2 2 4 7-2zm-16-12-3-4-5 2 2 3 6-1zm-4-8 2 3 5-1-2-3-5 1zm6 12-2-3-6 1 2 4 6-2zm17 13-3-4-6 2 2 4 7-2zm-4 7-3-4-7 2 2 4 8-2zm-21-6-2-4-5 1 3 4 4-1zm-8-14-4 1 2 4 5-1-3-4zm21 22-3-4-6 1 2 5 7-2zm-12-20-2-4-6 2 2 4 6-2zm3-21 1 2 6-1-2-2-5 1zm-23 7 4-1-1-2-4 1 1 2zm17-7 5-1-3-4-5 1 3 4zm-6 1 5-1-3-4-5 1 3 4zm-2 13-2-3-4 1 1 3 5-1zm20-16 4-1-3-4-4 1 3 4zm-27 5-2-5-4 1 2 5 4-1zm23 41-5 1 2 4 5-1-2-4zm23-6-7 2 3 4 7-2-3-4zm-8 2-7 2 2 4 8-2-3-4zm16-4-7 2 2 4 8-2-3-4zm7-2-6 2 3 4 6-2-3-4zm-41 5-4 1 2 4 5-1-3-4zm14-5-2-4-7 2 3 4 6-2zm11 3-3-4-6 1 3 5 6-2zm-18-1-2-4-7 2 3 4 6-2zm-12 3 5-1-2-4-5 1 2 4zm6-13-2-4-6 1 2 5 6-2zm32 9-3-4-7 1 3 5 7-2zm-29-4-2-4-6 2 2 4 6-2zm16-15 4 5 5-2-4-4-5 1zm-6-9 4-1-2-3-4 1 2 3zm-5-6 2 2 5-1-2-2-5 1zm31 32-3-4-6 1 3 5 6-2zm-26-25 3 3 4-1-2-4-5 2zm14 18 2 3 6-1-3-4-5 2zm-19-26 4-1-1-2-5 1 2 2zm11 15 5-1-3-4-5 2 3 3z" style="fill:#263238"/><path d="M322 304v8a16 16 0 0 1-2 2l-14 3 15 17 19-2c4-2 3-17 3-17Z" style="fill:#fff;stroke:#263238;stroke-linecap:round;stroke-linejoin:round;stroke-width:.75px"/><path d="M322 304v8h0l18 19c4-1 3-16 3-16Z" style="fill:#263238;stroke:#263238;stroke-linecap:round;stroke-linejoin:round;stroke-width:.75px"/><path d="M294 199v87l66 52V204l-66-5z" style="fill:#fff;stroke:#263238;stroke-linecap:round;stroke-linejoin:round;stroke-width:.75px"/><path d="M299 204v73l55 34V208l-55-4z" style="fill:#407bff;stroke:#263238;stroke-linecap:round;stroke-linejoin:round;stroke-width:.75px"/><path d="M361 204h6v134h-6z" style="fill:#263238;stroke:#263238;stroke-linecap:round;stroke-linejoin:round;stroke-width:.75px"/><path d="M303 208v65l46 27v-81l-32-5-2-4-12-2z" style="fill:#fff;stroke:#263238;stroke-linecap:round;stroke-linejoin:round;stroke-width:.75px"/><path d="M306 216v56l41 21v-70l-41-7z" style="fill:#407bff;stroke:#263238;stroke-linecap:round;stroke-linejoin:round;stroke-width:.75px"/><ellipse cx="324.7" cy="255.7" rx="11" ry="15.2" style="fill:#263238" transform="rotate(-19 325 256)"/><path d="m326 257 4-5a2 2 0 0 0 0-2l-2-1-4 5-4-6c0-1-1-2-2-1a2 2 0 0 0 0 2l4 7-4 4a2 2 0 0 0 0 3 2 2 0 0 0 1 0 1 1 0 0 0 1 0l4-4 4 6a2 2 0 0 0 1 1 1 1 0 0 0 1-1 2 2 0 0 0 0-2Z" style="fill:#fff"/><path d="m313 235 23 7m-24-14 30 9" style="fill:none;stroke:#263238;stroke-linecap:round;stroke-linejoin:round;stroke-width:.75px"/><path d="M332 371s-14 2-19 6-2 6 3 8 28-1 31-4 0-10-15-10Z" style="fill:#fff;stroke:#263238;stroke-linecap:round;stroke-linejoin:round;stroke-width:.75px"/><path d="M347 381a3 3 0 0 0 1-2c-6 0-15 1-23 4a81 81 0 0 1-7 2c6 1 26-1 29-4Z" style="fill:#263238;stroke:#263238;stroke-linecap:round;stroke-linejoin:round;stroke-width:.75px"/><path d="m281 212 11 6m-17-9 3 2m5 29h4m-17-2 9 1m7 27-12 3" style="fill:none;stroke:#263238;stroke-linecap:round;stroke-linejoin:round"/><path d="M270 119a29 29 0 1 0 29 29 29 29 0 0 0-29-29Zm0 52a23 23 0 1 1 23-23 23 23 0 0 1-23 23Z" style="fill:#263238"/><path d="M272 148a2 2 0 1 1-2-2 2 2 0 0 1 2 2Z" style="fill:#263238"/><path d="m263 158 7-10 12 9" style="fill:none;stroke:#263238;stroke-linecap:round;stroke-linejoin:round"/><path d="m118 170-4-10 2 2v-3l4 6-3-21 4 11 1-10v4l1-12 2 18 2-6v8l6-19-3 23 4-3-2 4 3-2-4 10-13 1" style="fill:#407bff"/><path d="M133 193h-15l-4-25h23l-4 25z" style="fill:#263238;stroke:#263238;stroke-linecap:round;stroke-linejoin:round"/><path d="M99 193h73v193H99z" style="fill:#fff;stroke:#263238;stroke-linecap:round;stroke-linejoin:round"/><path d="M104 199h63v47h-63z" style="fill:none;stroke:#263238;stroke-linecap:round;stroke-linejoin:round"/><path d="M123 218h25v9h-25z" style="fill:#263238"/><path d="M104 253h63v47h-63z" style="fill:none;stroke:#263238;stroke-linecap:round;stroke-linejoin:round"/><path d="M123 272h25v9h-25z" style="fill:#263238"/><path d="M104 308h63v46h-63z" style="fill:none;stroke:#263238;stroke-linecap:round;stroke-linejoin:round"/><path d="M123 327h25v8h-25z" style="fill:#263238"/><g style="clip-path:url(#a)"><path d="M180 375s36-16 56-17l14 31H142Z" style="fill:#263238;stroke:#263238;stroke-linecap:round;stroke-linejoin:round;stroke-width:.75px"/><path d="m224 185 31 36c5 6 6 10 4 12l-28 16-53 32c-1 1-4-27-4-27l65-27-1-2-20-38Z" style="fill:#fff"/><g style="clip-path:url(#b)"><path d="m249 230-30-44-1 1 20 38 1 2-65 27 1 1 4 10Z" style="fill:#407bff"/><path d="m249 230-30-44-1 1 20 38 1 2-65 27 1 1 4 10Z" style="fill:#fff;opacity:.5"/></g><path d="m224 185 31 36c5 6 6 10 4 12l-28 16-53 32c-1 1-4-27-4-27l65-27-1-2-20-38Z" style="fill:none;stroke:#263238;stroke-linecap:round;stroke-linejoin:round;stroke-width:.75px"/><path d="M204 172s-3-3-5 0-2 7-1 7l6-1v-6Z" style="fill:#fff;stroke:#263238;stroke-linecap:round;stroke-linejoin:round;stroke-width:.75px"/><path d="M209 170s-3-3-5-2-2 9-1 9l6-2v-5Z" style="fill:#fff;stroke:#263238;stroke-linecap:round;stroke-linejoin:round;stroke-width:.75px"/><path d="M216 170s-3-4-5-4-5 10-4 11 7 0 8-1a52 52 0 0 0 1-6Z" style="fill:#fff;stroke:#263238;stroke-linecap:round;stroke-linejoin:round;stroke-width:.75px"/><path d="M222 177c0-1-1-11-4-11s-7 9-7 10l11 1Zm17 50s9 4 13 4" style="fill:#fff;stroke:#263238;stroke-linecap:round;stroke-linejoin:round;stroke-width:.75px"/><path d="M158 389c10-1 24-9 28-18-3-15-7-37-7-51 0-23 6-36 3-51s-8-25-15-29c0 0-9 2-19 11s-18 25-21 40-8 60-8 72l-1 27h35a26 26 0 0 0 5-1Z" style="fill:#fff"/><g style="clip-path:url(#c)"><path d="M186 371c-6 5-33 15-36 16s-2-7 4-15-7 3-10 3 1-15 1-24l8-77 14-27 5-3a21 21 0 0 0-5-4s-9 2-19 11-18 25-21 40-8 60-8 72l-1 27h35a26 26 0 0 0 5-1c10-1 24-9 28-18Z" style="fill:#407bff"/><path d="M186 371c-6 5-33 15-36 16s-2-7 4-15-7 3-10 3 1-15 1-24l8-77 14-27 5-3a21 21 0 0 0-5-4s-9 2-19 11-18 25-21 40-8 60-8 72l-1 27h35a26 26 0 0 0 5-1c10-1 24-9 28-18Z" style="fill:#fff;opacity:.5"/></g><path d="M158 389c10-1 24-9 28-18-3-15-7-37-7-51 0-23 6-36 3-51s-8-25-15-29c0 0-9 2-19 11s-18 25-21 40-8 60-8 72l-1 27h35a26 26 0 0 0 5-1Z" style="fill:none;stroke:#263238;stroke-linecap:round;stroke-linejoin:round;stroke-width:.75px"/><path d="m167 243 16 30 1 17s5-12 3-20-20-27-20-27Zm17 47-4 70 5 14 3-29-3-57-1 2z" style="fill:#263238;stroke:#263238;stroke-linecap:round;stroke-linejoin:round;stroke-width:.75px"/><path d="m180 215 1 11c1 4-9 14-9 14l14 20 14-12s21-1 23-3 2-21 2-21l5-3-6-24-1-5s7-2 6-9-12-10-22-8-12 5-12 5-14 0-22 7-3 16 0 20a57 57 0 0 0 7 8Z" style="fill:#fff"/><g style="clip-path:url(#d)"><path d="M203 242c-4-5 0-23 3-32s-4-13-4-13l22-3-1-2a10 10 0 0 0 4-2l1-7c-2-7-11-10-21-8-10 1-12 5-12 5s-14 0-22 6-3 17 0 21a57 57 0 0 0 7 8s0 7 1 11-9 14-9 14l14 20 14-12 22-2 1-1s-16 2-20-3Z" style="fill:#407bff"/><path d="M203 242c-4-5 0-23 3-32s-4-13-4-13l22-3-1-2a10 10 0 0 0 4-2l1-7c-2-7-11-10-21-8-10 1-12 5-12 5s-14 0-22 6-3 17 0 21a57 57 0 0 0 7 8s0 7 1 11-9 14-9 14l14 20 14-12 22-2 1-1s-16 2-20-3Z" style="fill:#fff;opacity:.5"/><path d="M214 206v-1c0-1 1-4 3-5 3-1 6 2 6 2v3a4 4 0 0 0-4-2 9 9 0 0 0-5 3Zm6 6-1 3-1-3 1-3 1 3Zm-6 20c-1 2-3 2-3 1v-3l3-1v3Z" style="fill:#263238"/></g><path d="m180 215 1 11c1 4-9 14-9 14l14 20 14-12s21-1 23-3 2-21 2-21l5-3-6-24-1-5s7-2 6-9-12-10-22-8-12 5-12 5-14 0-22 7-3 16 0 20a57 57 0 0 0 7 8Z" style="fill:none;stroke:#263238;stroke-linecap:round;stroke-linejoin:round;stroke-width:.75px"/><path d="M198 196c4-2 25-4 25-4s7-2 5-9-11-10-21-8-12 5-12 5-14 0-22 6-3 17 0 21a57 57 0 0 0 7 8s0 4 0 8l6 1 7-3 7-2s-5-3-3-7 8-4 8-7-10-7-7-9Z" style="fill:#263238;stroke:#263238;stroke-linecap:round;stroke-linejoin:round;stroke-width:.75px"/><path d="M219 185s-2-4 2-4 4 8 1 10-22-2-32 1-17 11-17 11m5 7s8-7 15-8 9-1 2 3-2 3 2 2" style="fill:none;stroke:#fff;stroke-linecap:round;stroke-miterlimit:10"/><path d="M195 225s-1-13-7-13-6 8-4 14 6 8 9 5" style="fill:#407bff"/><g style="clip-path:url(#e)"><path d="M195 225s-1-13-7-13-6 8-4 14 6 8 9 5" style="fill:#fff;stroke:#263238;stroke-linecap:round;stroke-linejoin:round;stroke-width:.75px;opacity:.5"/></g><path d="M195 225s-1-13-7-13-6 8-4 14 6 8 9 5" style="fill:none;stroke:#263238;stroke-linecap:round;stroke-linejoin:round;stroke-width:.75px"/><path d="m173 233 19 29-9 11a224 224 0 0 0-13-22l-7-11Z" style="fill:#fff"/><g style="clip-path:url(#f)"><path d="m173 233-10 7 5 7 10-6Z" style="fill:#407bff"/><path d="m173 233-10 7 5 7 10-6Z" style="fill:#fff;opacity:.5"/></g><path d="m173 233 19 29-9 11a224 224 0 0 0-13-22l-7-11Z" style="fill:none;stroke:#263238;stroke-linecap:round;stroke-linejoin:round;stroke-width:.75px"/><path d="m223 305 3-10c0-4 1-6 3-8s10-10 11-13 2 0 3 2 0 5-2 6a21 21 0 0 0-3 4l1 1 27-10c3-1 5 0 5 2s-1 2-2 2l-15 6-2 1 1 1h20a2 2 0 0 1-1 4 4 4 0 0 1-3 1l-16 1v2l17 3v2c0 1-1 2-3 2l-14-2 7 4 3 2c0 1-1 2-3 2l-9-4-11 1a38 38 0 0 1-6 0l-8 5Z" style="fill:#fff;stroke:#263238;stroke-linecap:round;stroke-linejoin:round;stroke-width:.75px"/><path d="m168 297-8-29c-2-5-15-10-22 2s0 24 2 33l19 56c2 5 6 4 8 4s61-48 61-48l-5-10-45 23Z" style="fill:#fff"/><g style="clip-path:url(#g)"><path d="M166 348a140 140 0 0 1 5-13c2-5-10 10-12 2s-19-46-16-59a24 24 0 0 1 9-15c-4-1-10 0-14 7-6 11 0 24 2 33l19 56c2 5 6 4 8 4l50-39Z" style="fill:#407bff"/><path d="M166 348a140 140 0 0 1 5-13c2-5-10 10-12 2s-19-46-16-59a24 24 0 0 1 9-15c-4-1-10 0-14 7-6 11 0 24 2 33l19 56c2 5 6 4 8 4l50-39Z" style="fill:#fff;opacity:.5"/></g><path d="m168 297-8-29c-2-5-15-10-22 2s0 24 2 33l19 56c2 5 6 4 8 4s61-48 61-48l-5-10-45 23Z" style="fill:none;stroke:#263238;stroke-linecap:round;stroke-linejoin:round;stroke-width:.75px"/><path d="m216 309 6 10M94 255l-26 19s13 14 11 50c-1 28 3 59 8 66h29s-10-54-9-85c0-24-7-40-13-50Z" style="fill:#fff;stroke:#263238;stroke-linecap:round;stroke-linejoin:round;stroke-width:.75px"/><path d="m97 255-26 19s13 14 12 50c-1 28 2 59 8 66h28s-10-54-9-85c0-24-7-40-13-50Z" style="fill:#263238;stroke:#263238;stroke-linecap:round;stroke-linejoin:round;stroke-width:.75px"/><path d="M94 255h3l-26 19h-3l26-19z" style="fill:#fff;stroke:#263238;stroke-linecap:round;stroke-linejoin:round;stroke-width:.75px"/></g></svg>